HIERARCHY
ROOT Hips
{
	OFFSET	0.00	0.00	0.00
	CHANNELS 6 Xposition Yposition Zposition Zrotation Xrotation Yrotation
	JOINT Spine
	{
		OFFSET	 0.00	0.01	 0.00
		CHANNELS 3 Zrotation Xrotation Yrotation
		JOINT Spine1
		{
			OFFSET	 0.00	 2.45913012437421	 0.00
			CHANNELS 3 Zrotation Xrotation Yrotation
            JOINT Neck
            {
                OFFSET	 0.00	 2.48462964506057	 0.00
                CHANNELS 3 Zrotation Xrotation Yrotation
                JOINT Head
                {
                    OFFSET	 0.00	 0.927524780924562	 0.00
                    CHANNELS 3 Zrotation Xrotation Yrotation
                    End Site 
                    {
                        OFFSET	 0.00	 1.14999962169752	 0.00
                    }
                }
            }
			JOINT LeftShoulder
			{
				OFFSET	 0.00	 2.48462964506057	 0.00
				CHANNELS 3 Zrotation Xrotation Yrotation
				JOINT LeftUpArm
				{
					OFFSET	 0.00	 1.24881979654096	 0.00
					CHANNELS 3 Zrotation Xrotation Yrotation
					JOINT LeftForeArm
					{
						OFFSET	 0.00	2.59758046908119	 0.00
						CHANNELS 3 Zrotation Xrotation Yrotation
						JOINT LeftHand
						{
							OFFSET	 0.00	2.45542024364365	 0.00
							CHANNELS 3 Zrotation Xrotation Yrotation
							JOINT LeftHandThumb 
							{
								OFFSET	 0.00	0.00	 0.00
								CHANNELS 3 Zrotation Xrotation Yrotation
								End Site
								{
									OFFSET	 0.00	0.00	1.00000003353624
								}
							}
							JOINT L_Wrist_End 
							{
								OFFSET	 0.00	0.99999967115358	 0.00
								CHANNELS 3 Zrotation Xrotation Yrotation
								End Site 
								{
									OFFSET	 0.00	 0.00	 0.00
								}
							}
						}
					}
				}
			}
			JOINT RightShoulder
			{
				OFFSET	 0.00	 2.48462964506057	 0.00
				CHANNELS 3 Zrotation Xrotation Yrotation
				JOINT RightUpArm
				{
					OFFSET	 0.00	 1.24881979654096	 0.00
					CHANNELS 3 Zrotation Xrotation Yrotation
					JOINT RightForeArm
					{
						OFFSET	 0.00	2.59758046908119	 0.00
						CHANNELS 3 Zrotation Xrotation Yrotation
						JOINT RightHand
						{
							OFFSET	 0.00	2.45542024364365	 0.00
							CHANNELS 3 Zrotation Xrotation Yrotation
							JOINT RightHandThumb 
							{
								OFFSET	 0.00	0.00	 0.00
								CHANNELS 3 Zrotation Xrotation Yrotation
								End Site
								{
									OFFSET	 0.00	0.00	1.00000003353624
								}
							}
							JOINT R_Wrist_End 
							{
								OFFSET	 0.00	0.99999967115358	 0.00
								CHANNELS 3 Zrotation Xrotation Yrotation
								End Site 
								{
									OFFSET	 0.00	 0.00	 0.00
								}
							}
						}
					}
				}
			}
		}
	}
	JOINT LeftUpLeg
	{
		OFFSET	 1.2719394002717	 0.00	 0.00
		CHANNELS 3 Zrotation Xrotation Yrotation
		JOINT LeftLowLeg
		{
			OFFSET	 0.00	-4.3429100912261	 0.00
			CHANNELS 3 Zrotation Xrotation Yrotation
			JOINT LeftFoot
			{
				OFFSET	 0.00	-4.48767017425826	 0.00
				CHANNELS 3 Zrotation Xrotation Yrotation
				JOINT LeftToeBase
                {
                    OFFSET	 0.00	0.00	 1.51507020887566
                    CHANNELS 3 Zrotation Xrotation Yrotation
                    End Site 
                    {
                        OFFSET	 0.00	0.00	 0.75000010571191
                    }
                }
			}
		}
	}
	JOINT RightUpLeg
	{
		OFFSET	 -1.2719393604653	 0.00	 0.00
		CHANNELS 3 Zrotation Xrotation Yrotation
		JOINT RightLowLeg
		{
			OFFSET	 0.00	-4.3429100912261	 0.00
			CHANNELS 3 Zrotation Xrotation Yrotation
			JOINT RightFoot
			{
				OFFSET	 0.00	-4.48767017425826	 0.00
				CHANNELS 3 Zrotation Xrotation Yrotation
				JOINT RightToeBase
                {
                    OFFSET	 0.00	0.00	 1.51507020887566
                    CHANNELS 3 Zrotation Xrotation Yrotation
                    End Site 
                    {
                        OFFSET	 0.00	0.00	 0.749999965609858
                    }
                }   
			}
		}
	}
}
MOTION 
Frames:	8 
Frame Time: 0.02 
  -3.21125 3.7396701049804686 3.7019699096679686 -9.29329 71.7793 -308.312 20.0873 23.0278 -0.361637 -11.3669 -11.1841 -10.1669 7.31337 56.5426 -2.34854 -75.5476 -57.8235 -49.9648 -115.439804 12.5444 17.2007 -53.132 62.1691 -340.044 0.0 90.8254 0.0 77.7299 28.5575 15.849 0.0 0.0 0.0 0.0 0.0 0.0 112.747604 -5.43456 4.78624 -54.4567 25.001 -316.461 0.0 99.2431 0.0 -0.256641 17.2811 -25.7627 0.0 0.0 0.0 0.0 0.0 0.0 8.68978 -60.7038 14.5151 0.0 156.048 0.0 22.1383 -25.7221 29.2071 0.0 -45.9752 0.0 -4.9134 -80.3892 353.066 0.0 124.697 0.0 19.9585 -24.6535 4.64499 0.0 -17.12052 0.0 
  -3.2028799438476563 3.73447998046875 3.698219909667969 -9.48911 71.9059 -308.167 19.8601 22.7223 -0.197309 -11.3766 -11.1388 -10.0289 7.94546 56.9209 -2.83851 -74.6886 -58.1389 -49.1438 -115.542404 12.8736 17.2904 -52.8405 62.1757 -340.148 0.0 90.339 0.0 77.7859 28.6219 15.6634 0.0 0.0 0.0 0.0 0.0 0.0 112.745895 -5.46028 4.52087 -54.1096 24.6464 -316.82 0.0 99.5205 0.0 -0.285789 17.5522 -25.9292 0.0 0.0 0.0 0.0 0.0 0.0 8.55629 -60.6618 14.2006 0.0 156.123 0.0 21.613 -26.039001 28.395 0.0 -46.146797 0.0 -7.48185 -80.3544 350.686 0.0 124.628 0.0 21.8003 -23.565498 7.00796 0.0 -17.40025 0.0 
  -3.1953298950195315 3.7297299194335936 3.6944500732421877 -9.52469 72.102 -308.123 19.6981 22.4762 -0.140041 -11.5444 -11.1636 -9.97854 8.36244 57.097 -3.19281 -74.0847 -58.3135 -48.6034 -115.5651 13.0218 17.3506 -52.6866 62.1914 -340.111 0.0 89.8059 0.0 77.6477 28.2734 15.7476 0.0 0.0 0.0 0.0 0.0 0.0 112.694595 -5.48198 4.57659 -53.6429 24.6334 -317.361 0.0 99.7621 0.0 -0.155342 17.5334 -26.3694 0.0 0.0 0.0 0.0 0.0 0.0 8.41147 -60.6461 14.0505 0.0 156.15 0.0 21.3195 -26.234798 27.8848 0.0 -46.315598 0.0 -9.56606 -80.366 348.882 0.0 124.668 0.0 23.3886 -23.069698 8.60271 0.0 -17.23932 0.0 
  -3.1857598876953124 3.724620056152344 3.6917898559570315 -9.39258 72.2968 -308.189 19.764 22.3146 -0.373338 -12.0127 -11.3793 -10.105 7.99853 57.3679 -2.60492 -73.3961 -58.329 -48.0529 -115.5086 12.8056 17.3908 -52.4972 62.2248 -340.05 0.0 89.0593 0.0 77.1432 28.1566 16.9604 0.0 0.0 0.0 0.0 0.0 0.0 112.7034 -5.29082 4.61837 -53.2038 24.8332 -318.035 0.0 99.9037 0.0 0.114101 17.3554 -26.5784 0.0 0.0 0.0 0.0 0.0 0.0 8.12047 -60.5826 13.7333 0.0 156.163 0.0 21.0576 -26.4207 27.3187 0.0 -46.4346 0.0 -12.4355 -80.3184 346.183 0.0 124.772 0.0 23.1509 -22.8539 9.04367 0.0 -17.24003 0.0 
  -3.174639892578125 3.72114013671875 3.686929931640625 -8.9101 72.4581 -308.619 19.6002 22.0623 -0.285627 -12.1274 -11.253 -9.95972 8.08673 57.4556 -2.79116 -73.0261 -58.2062 -47.7849 -115.6229 13.1511 17.4949 -52.2817 62.1299 -340.211 0.0 88.2733 0.0 77.1621 27.6743 16.404 0.0 0.0 0.0 0.0 0.0 0.0 112.6146 -5.4173 4.73829 -52.9444 24.9253 -318.667 0.0 99.7767 0.0 0.0838799 17.3752 -26.436 0.0 0.0 0.0 0.0 0.0 0.0 7.67761 -60.4475 13.4499 0.0 156.183 0.0 20.7087 -26.550701 26.8555 0.0 -46.597603 0.0 -15.3 -80.2064 343.485 0.0 124.953 0.0 23.1279 -22.822601 9.48629 0.0 -17.0673 0.0 
  -3.1643798828125 3.7172000122070314 3.68302001953125 -8.474 72.6163 -309.07 19.5119 21.92 -0.287149 -12.3989 -11.3198 -9.94708 7.93142 57.5294 -2.69878 -72.8197 -58.0579 -47.4867 -115.6316 13.2178 17.5466 -52.2071 62.0324 -340.211 0.0 87.3569 0.0 77.3798 27.5031 16.0035 0.0 0.0 0.0 0.0 0.0 0.0 112.5819 -5.415 4.73626 -52.7341 25.1587 -319.367 0.0 99.4237 0.0 -0.207712 17.5938 -26.2733 0.0 0.0 0.0 0.0 0.0 0.0 7.69625 -60.283 13.5606 0.0 156.203 0.0 20.5771 -26.600101 26.3789 0.0 -46.8339 0.0 -17.5986 -80.0948 341.327 0.0 125.124 0.0 23.7918 -22.877102 10.3339 0.0 -15.840103 0.0 
  -3.1527899169921874 3.7157101440429687 3.679580078125 -8.04724 72.7476 -309.556 19.5022 21.8056 -0.323983 -12.7287 -11.3891 -9.89096 7.62407 57.5176 -2.45431 -72.6699 -57.8583 -47.3258 -115.622604 13.305 17.5833 -52.1365 61.8688 -340.232 0.0 86.4931 0.0 77.5119 27.3225 15.6484 0.0 0.0 0.0 0.0 0.0 0.0 112.5887 -5.37442 4.6677 -52.6167 25.3477 -320.026 0.0 98.9804 0.0 -0.364092 17.8357 -26.5183 0.0 0.0 0.0 0.0 0.0 0.0 7.66658 -60.1674 13.6824 0.0 156.225 0.0 20.3536 -26.541302 25.905 0.0 -47.1301 0.0 -19.4937 -80.0168 339.568 0.0 125.266 0.0 22.7609 -22.8866 9.9309 0.0 -16.88197 0.0 
  -3.141400146484375 3.7144601440429685 3.6760299682617186 -7.7456 72.8653 -309.959 19.5001 21.7021 -0.35297 -13.042 -11.4858 -9.83706 7.30043 57.4035 -2.21745 -72.5779 -57.6569 -47.1128 -115.6044 13.3578 17.5819 -52.1016 61.6842 -340.179 0.0 85.6372 0.0 77.4793 27.2765 15.3244 0.0 0.0 0.0 0.0 0.0 0.0 112.612305 -5.28785 4.52925 -52.5913 25.509 -320.611 0.0 98.5231 0.0 -0.248838 17.8963 -27.0273 0.0 0.0 0.0 0.0 0.0 0.0 7.74557 -60.0818 13.9208 0.0 156.259 0.0 20.112 -26.448101 25.456 0.0 -47.4636 0.0 -20.8622 -79.9881 338.332 0.0 125.397 0.0 22.5032 -22.8769 10.0231 0.0 -16.88845 0.0 
